<svg width="100" height="100" viewBox="0 0 100 100" fill="none" xmlns="http://www.w3.org/2000/svg">
<path d="M50.0003 25.0001V37.5001L66.667 20.8334L50.0003 4.16675V16.6667C31.5837 16.6667 16.667 31.5834 16.667 50.0001C16.667 56.5417 18.5837 62.6251 21.8337 67.7501L27.917 61.6667C26.042 58.2084 25.0003 54.2084 25.0003 50.0001C25.0003 36.2084 36.2087 25.0001 50.0003 25.0001ZM78.167 32.2501L72.0836 38.3334C73.917 41.8334 75.0003 45.7917 75.0003 50.0001C75.0003 63.7917 63.792 75.0001 50.0003 75.0001V62.5001L33.3337 79.1667L50.0003 95.8334V83.3334C68.417 83.3334 83.3336 68.4167 83.3336 50.0001C83.3336 43.4584 81.417 37.3751 78.167 32.2501V32.2501Z" fill="#FFA912"/>
</svg>
