<svg width="100" height="100" viewBox="0 0 100 100" fill="none" xmlns="http://www.w3.org/2000/svg">
<path d="M50.0003 70.8334C54.5837 70.8334 58.3337 67.0834 58.3337 62.5001C58.3337 57.9168 54.5837 54.1668 50.0003 54.1668C45.417 54.1668 41.667 57.9168 41.667 62.5001C41.667 67.0834 45.417 70.8334 50.0003 70.8334ZM75.0003 33.3334H70.8337V25.0001C70.8337 13.5001 61.5003 4.16675 50.0003 4.16675C38.5003 4.16675 29.167 13.5001 29.167 25.0001H37.0837C37.0837 17.8751 42.8753 12.0834 50.0003 12.0834C57.1253 12.0834 62.917 17.8751 62.917 25.0001V33.3334H25.0003C20.417 33.3334 16.667 37.0834 16.667 41.6668V83.3334C16.667 87.9168 20.417 91.6668 25.0003 91.6668H75.0003C79.5836 91.6668 83.3336 87.9168 83.3336 83.3334V41.6668C83.3336 37.0834 79.5836 33.3334 75.0003 33.3334ZM75.0003 83.3334H25.0003V41.6668H75.0003V83.3334Z" fill="#FFA912"/>
</svg>
