<svg width="100" height="100" viewBox="0 0 100 100" fill="none" xmlns="http://www.w3.org/2000/svg">
<path d="M64.583 45.8333C68.0348 45.8333 70.833 43.035 70.833 39.5833C70.833 36.1315 68.0348 33.3333 64.583 33.3333C61.1312 33.3333 58.333 36.1315 58.333 39.5833C58.333 43.035 61.1312 45.8333 64.583 45.8333Z" fill="#FFA912"/>
<path d="M35.417 45.8333C38.8688 45.8333 41.667 43.035 41.667 39.5833C41.667 36.1315 38.8688 33.3333 35.417 33.3333C31.9652 33.3333 29.167 36.1315 29.167 39.5833C29.167 43.035 31.9652 45.8333 35.417 45.8333Z" fill="#FFA912"/>
<path d="M64.583 45.8333C68.0348 45.8333 70.833 43.035 70.833 39.5833C70.833 36.1315 68.0348 33.3333 64.583 33.3333C61.1312 33.3333 58.333 36.1315 58.333 39.5833C58.333 43.035 61.1312 45.8333 64.583 45.8333Z" fill="#FFA912"/>
<path d="M35.417 45.8333C38.8688 45.8333 41.667 43.035 41.667 39.5833C41.667 36.1315 38.8688 33.3333 35.417 33.3333C31.9652 33.3333 29.167 36.1315 29.167 39.5833C29.167 43.035 31.9652 45.8333 35.417 45.8333Z" fill="#FFA912"/>
<path d="M49.958 8.33325C26.958 8.33325 8.33301 26.9999 8.33301 49.9999C8.33301 72.9999 26.958 91.6666 49.958 91.6666C72.9997 91.6666 91.6663 72.9999 91.6663 49.9999C91.6663 26.9999 72.9997 8.33325 49.958 8.33325ZM49.9997 83.3333C31.583 83.3333 16.6663 68.4166 16.6663 49.9999C16.6663 31.5833 31.583 16.6666 49.9997 16.6666C68.4163 16.6666 83.333 31.5833 83.333 49.9999C83.333 68.4166 68.4163 83.3333 49.9997 83.3333ZM49.9997 72.9166C59.708 72.9166 67.9997 66.8749 71.333 58.3333H64.3747C61.4997 63.2916 56.1663 66.6666 49.9997 66.6666C43.833 66.6666 38.5413 63.2916 35.6247 58.3333H28.6663C31.9997 66.8749 40.2913 72.9166 49.9997 72.9166Z" fill="#FFA912"/>
</svg>
